# Blender v2.82 (sub 7) OBJ File: 'Intersection4.blend'
# www.blender.org
mtllib Grass-Hill.mtl
o Park_Plane.005
v 10.000000 0.106737 10.000000
v 3.333333 0.000000 10.000000
v 4.285714 0.000000 10.000000
v 5.238095 0.050576 10.000000
v 6.190476 0.198857 10.000000
v 7.142857 0.287524 10.000000
v 8.095238 0.295103 10.000000
v 9.047619 0.210358 10.000000
v 10.000000 0.293171 9.047619
v 10.000000 0.353761 8.095238
v 10.000000 0.350177 7.142858
v 10.000000 0.250798 6.190476
v 10.000000 0.050574 5.238095
v 10.000000 0.000000 4.285715
v 10.000000 0.000000 3.333334
v 3.333333 0.000000 9.047619
v 3.333333 0.000000 8.095238
v 3.333333 0.000000 7.142858
v 3.333333 0.000000 6.190476
v 3.333333 0.000000 5.238095
v 3.333333 0.000000 4.285715
v 3.333333 0.000000 3.333334
v 4.285714 0.050576 9.047619
v 4.285714 0.247389 8.095238
v 4.285714 0.287524 7.142858
v 4.285714 0.247389 6.190476
v 4.285714 0.050575 5.238095
v 4.285714 0.000000 4.285715
v 4.285714 0.000000 3.333334
v 5.238095 0.273992 9.047619
v 5.238095 0.428644 8.095238
v 5.238095 0.463645 7.142858
v 5.238095 0.428644 6.190476
v 5.238095 0.324605 5.238095
v 5.238095 0.050575 4.285715
v 5.238095 0.000000 3.333334
v 6.190476 0.287752 9.047619
v 6.190476 0.490350 8.095238
v 6.190476 0.589290 7.142858
v 6.190476 0.540799 6.190476
v 6.190476 0.428644 5.238095
v 6.190476 0.247389 4.285715
v 6.190476 0.000000 3.333334
v 7.142857 0.532527 9.047619
v 7.142857 0.754808 8.095238
v 7.142857 0.806584 7.142858
v 7.142857 0.589290 6.190476
v 7.142857 0.463645 5.238095
v 7.142857 0.287524 4.285715
v 7.142857 0.000000 3.333334
v 8.095238 0.677738 9.047619
v 8.095238 0.833806 8.095238
v 8.095238 0.837205 7.142858
v 8.095238 0.658412 6.190476
v 8.095238 0.428644 5.238095
v 8.095238 0.247389 4.285715
v 8.095238 0.000000 3.333334
v 9.047619 0.617707 9.047619
v 9.047619 0.809041 8.095238
v 9.047619 0.757272 7.142858
v 9.047619 0.595410 6.190476
v 9.047619 0.324605 5.238095
v 9.047619 0.050575 4.285715
v 9.047619 0.000000 3.333334
v 9.978221 -0.036026 9.983294
v 3.311554 -0.036026 9.983294
v 4.263935 -0.036026 9.983294
v 5.216316 -0.036026 9.983294
v 6.168697 -0.067550 9.983294
v 7.121078 -0.036026 9.983294
v 8.073459 -0.036026 9.983294
v 9.025840 -0.036026 9.983294
v 9.978221 -0.036026 9.030913
v 9.978221 -0.036026 8.078532
v 9.978221 -0.036026 7.126152
v 9.978221 -0.036026 6.173771
v 9.978221 -0.036026 5.221390
v 9.978221 -0.036026 4.269009
v 9.978221 -0.036026 3.316628
vt 0.593169 0.962372
vt 0.512619 0.962351
vt 0.512536 0.873361
vt 0.593151 0.873238
vt 0.512264 0.784788
vt 0.593133 0.784105
vt 0.512194 0.695769
vt 0.593115 0.694971
vt 0.512228 0.606521
vt 0.593097 0.605837
vt 0.512464 0.516826
vt 0.593079 0.516703
vt 0.512511 0.427548
vt 0.593061 0.427569
vt 0.512493 0.338414
vt 0.593043 0.338436
vt 0.432003 0.962473
vt 0.431697 0.873976
vt 0.431480 0.785283
vt 0.431417 0.696249
vt 0.431444 0.607016
vt 0.431561 0.517585
vt 0.431896 0.427670
vt 0.431943 0.338393
vt 0.351262 0.962874
vt 0.351130 0.873994
vt 0.350851 0.785438
vt 0.350705 0.696586
vt 0.350750 0.607314
vt 0.350876 0.517860
vt 0.351092 0.428210
vt 0.351393 0.338371
vt 0.270598 0.963106
vt 0.270264 0.874670
vt 0.269960 0.786170
vt 0.269875 0.697183
vt 0.270137 0.607430
vt 0.270281 0.517938
vt 0.270490 0.428303
vt 0.270843 0.338349
vt 0.190038 0.963106
vt 0.189527 0.875062
vt 0.189308 0.786373
vt 0.189285 0.697249
vt 0.189498 0.607606
vt 0.189776 0.517817
vt 0.189992 0.428167
vt 0.190293 0.338328
vt 0.109597 0.962842
vt 0.109054 0.874870
vt 0.108789 0.786281
vt 0.108838 0.697000
vt 0.109029 0.607405
vt 0.109360 0.517499
vt 0.109695 0.427584
vt 0.109743 0.338306
vt 0.029181 0.962526
vt 0.028922 0.873923
vt 0.028826 0.784962
vt 0.028813 0.695818
vt 0.028923 0.606401
vt 0.029163 0.516697
vt 0.029211 0.427419
vt 0.029193 0.338285
vt 0.647636 0.433687
vt 0.646497 0.304259
vt 0.771628 0.306542
vt 0.771628 0.435971
vt 0.903736 0.307360
vt 0.917375 0.177879
vt 0.929630 0.174879
vt 0.932148 0.304303
vt 0.679216 0.563121
vt 0.771628 0.565400
vt 0.858883 0.436952
vt 0.944736 0.433692
vt 0.742841 0.692559
vt 0.771629 0.694828
vt 0.833075 0.566476
vt 0.937183 0.563152
vt 0.758911 0.821990
vt 0.771628 0.824257
vt 0.833171 0.695909
vt 0.939700 0.692576
vt 0.758911 0.951419
vt 0.771629 0.953685
vt 0.862762 0.825238
vt 0.942218 0.822001
vt 0.665751 0.174833
vt 0.724994 0.045414
vt 0.771628 0.047685
vt 0.771628 0.177114
vt 0.898383 0.954545
vt 0.944736 0.951425
vt 0.914858 0.048454
vt 0.927112 0.045455
vn -0.0265 0.9993 0.0265
vn -0.0840 0.9929 0.0840
vn -0.1315 0.9850 0.1117
vn -0.0904 0.9938 0.0642
vn -0.2043 0.9752 0.0852
vn -0.2126 0.9752 0.0611
vn -0.2273 0.9738 -0.0000
vn -0.2704 0.9628 -0.0000
vn -0.2107 0.9744 -0.0785
vn -0.2126 0.9752 -0.0611
vn -0.1439 0.9833 -0.1117
vn -0.0904 0.9938 -0.0642
vn -0.0549 0.9970 -0.0549
vn -0.0133 0.9998 -0.0133
vn 0.0000 1.0000 0.0000
vn -0.1128 0.9821 0.1510
vn -0.1176 0.9790 0.1666
vn -0.1315 0.9843 0.1179
vn -0.1476 0.9890 0.0066
vn -0.1626 0.9829 -0.0865
vn -0.1655 0.9722 -0.1655
vn -0.1117 0.9833 -0.1439
vn -0.0642 0.9938 -0.0904
vn -0.1266 0.9780 0.1658
vn -0.1359 0.9739 0.1819
vn -0.1601 0.9776 0.1369
vn -0.1520 0.9883 -0.0086
vn -0.1041 0.9891 -0.1041
vn -0.0865 0.9829 -0.1626
vn -0.0785 0.9744 -0.2107
vn -0.0611 0.9752 -0.2126
vn -0.1238 0.9625 0.2414
vn -0.1543 0.9624 0.2236
vn -0.1677 0.9776 0.1276
vn -0.1233 0.9906 -0.0591
vn -0.0625 0.9848 -0.1620
vn -0.0153 0.9855 -0.1690
vn -0.0000 0.9738 -0.2273
vn -0.0000 0.9628 -0.2704
vn -0.0023 0.9373 0.3486
vn -0.0194 0.9634 0.2673
vn -0.0183 0.9954 0.0945
vn 0.0049 0.9955 -0.0942
vn 0.0223 0.9787 -0.2042
vn 0.0644 0.9749 -0.2133
vn 0.0785 0.9744 -0.2107
vn 0.0611 0.9752 -0.2126
vn 0.1421 0.9308 0.3366
vn 0.1787 0.9528 0.2455
vn 0.2232 0.9727 0.0631
vn 0.2289 0.9693 -0.0896
vn 0.2077 0.9581 -0.1971
vn 0.1783 0.9589 -0.2209
vn 0.1117 0.9833 -0.1439
vn 0.0642 0.9938 -0.0904
vn 0.2098 0.9334 0.2910
vn 0.2929 0.9328 0.2099
vn 0.3952 0.9173 0.0483
vn 0.3885 0.9182 -0.0773
vn 0.3320 0.9260 -0.1798
vn 0.2323 0.9524 -0.1972
vn 0.0965 0.9906 -0.0965
vn 0.0265 0.9993 -0.0265
vn 0.9982 -0.0601 0.0016
vn 0.9983 -0.0582 -0.0009
vn 0.9982 -0.0605 0.0018
vn 0.0063 -0.1626 0.9867
vn 0.0047 -0.3183 0.9480
vn 0.0024 -0.3689 0.9295
vn 0.0065 -0.1929 0.9812
vn 0.9962 -0.0872 0.0072
vn 0.9957 -0.0918 0.0080
vn 0.0046 -0.0733 0.9973
vn 0.0048 -0.0769 0.9970
vn 0.9782 -0.2074 0.0110
vn 0.9704 -0.2414 0.0105
vn 0.0018 -0.0537 0.9986
vn 0.0020 -0.0540 0.9985
vn 0.9137 -0.4064 0.0056
vn 0.8925 -0.4510 0.0034
vn -0.0012 -0.0543 0.9985
vn -0.0011 -0.0541 0.9985
vn 0.8558 -0.5174 0.0000
vn -0.0036 -0.0712 0.9975
vn -0.0035 -0.0705 0.9975
vn 0.9972 -0.0750 -0.0052
vn 0.9958 -0.0913 -0.0089
vn 0.9971 -0.0753 -0.0053
vn -0.0046 -0.0850 0.9964
vn 0.0000 -0.4207 0.9072
usemtl Park_Grass.001
s 1
f 2/1/1 3/2/2 23/3/3 16/4/4
f 16/4/4 23/3/3 24/5/5 17/6/6
f 17/6/6 24/5/5 25/7/7 18/8/8
f 18/8/8 25/7/7 26/9/9 19/10/10
f 19/10/10 26/9/9 27/11/11 20/12/12
f 20/12/12 27/11/11 28/13/13 21/14/14
f 21/14/14 28/13/13 29/15/14 22/16/15
f 3/2/2 4/17/16 30/18/17 23/3/3
f 23/3/3 30/18/17 31/19/18 24/5/5
f 24/5/5 31/19/18 32/20/19 25/7/7
f 25/7/7 32/20/19 33/21/20 26/9/9
f 26/9/9 33/21/20 34/22/21 27/11/11
f 27/11/11 34/22/21 35/23/22 28/13/13
f 28/13/13 35/23/22 36/24/23 29/15/14
f 4/17/16 5/25/24 37/26/25 30/18/17
f 30/18/17 37/26/25 38/27/26 31/19/18
f 31/19/18 38/27/26 39/28/27 32/20/19
f 32/20/19 39/28/27 40/29/28 33/21/20
f 33/21/20 40/29/28 41/30/29 34/22/21
f 34/22/21 41/30/29 42/31/30 35/23/22
f 35/23/22 42/31/30 43/32/31 36/24/23
f 5/25/24 6/33/32 44/34/33 37/26/25
f 37/26/25 44/34/33 45/35/34 38/27/26
f 38/27/26 45/35/34 46/36/35 39/28/27
f 39/28/27 46/36/35 47/37/36 40/29/28
f 40/29/28 47/37/36 48/38/37 41/30/29
f 41/30/29 48/38/37 49/39/38 42/31/30
f 42/31/30 49/39/38 50/40/39 43/32/31
f 6/33/32 7/41/40 51/42/41 44/34/33
f 44/34/33 51/42/41 52/43/42 45/35/34
f 45/35/34 52/43/42 53/44/43 46/36/35
f 46/36/35 53/44/43 54/45/44 47/37/36
f 47/37/36 54/45/44 55/46/45 48/38/37
f 48/38/37 55/46/45 56/47/46 49/39/38
f 49/39/38 56/47/46 57/48/47 50/40/39
f 7/41/40 8/49/48 58/50/49 51/42/41
f 51/42/41 58/50/49 59/51/50 52/43/42
f 52/43/42 59/51/50 60/52/51 53/44/43
f 53/44/43 60/52/51 61/53/52 54/45/44
f 54/45/44 61/53/52 62/54/53 55/46/45
f 55/46/45 62/54/53 63/55/54 56/47/46
f 56/47/46 63/55/54 64/56/55 57/48/47
f 8/49/48 1/57/56 9/58/57 58/50/49
f 58/50/49 9/58/57 10/59/58 59/51/50
f 59/51/50 10/59/58 11/60/59 60/52/51
f 60/52/51 11/60/59 12/61/60 61/53/52
f 61/53/52 12/61/60 13/62/61 62/54/53
f 62/54/53 13/62/61 14/63/62 63/55/54
f 63/55/54 14/63/62 15/64/63 64/56/55
f 11/65/64 10/66/65 74/67/65 75/68/66
f 4/69/67 3/70/68 67/71/69 68/72/70
f 12/73/71 11/65/64 75/68/66 76/74/72
f 5/75/73 4/69/67 68/72/70 69/76/74
f 13/77/75 12/73/71 76/74/72 77/78/76
f 6/79/77 5/75/73 69/76/74 70/80/78
f 14/81/79 13/77/75 77/78/76 78/82/80
f 7/83/81 6/79/77 70/80/78 71/84/82
f 15/85/83 14/81/79 78/82/80 79/86/83
f 8/87/84 7/83/81 71/84/82 72/88/85
f 9/89/86 1/90/87 65/91/87 73/92/88
f 1/93/89 8/87/84 72/88/85 65/94/89
f 10/66/65 9/89/86 73/92/88 74/67/65
f 3/70/68 2/95/90 66/96/90 67/71/69
