# Blender v2.82 (sub 7) OBJ File: 'Intersection4.blend'
# www.blender.org
mtllib Island-Base.mtl
o Cube_Cube.003
v -10.000000 -0.001007 10.000000
v -10.000000 -0.001007 -10.000000
v 10.000000 -0.001007 10.000000
v 10.000000 -0.001007 -10.000000
v -10.000000 -0.001007 10.000000
v -10.000000 -0.001007 -10.000000
v 10.000000 -0.001007 -10.000000
v 10.000000 -0.001007 10.000000
v -10.000000 -0.625585 -10.000000
v 10.000000 -0.625585 -10.000000
v 10.000000 -0.625585 10.000000
v -10.000000 -0.625585 10.000000
v -8.794909 -2.001007 8.794909
v -10.000000 -0.795916 10.000000
v -9.030010 -1.977852 9.030010
v -9.256077 -1.909275 9.256077
v -9.464421 -1.797912 9.464421
v -9.647037 -1.648044 9.647037
v -9.796906 -1.465429 9.796906
v -9.908268 -1.257084 9.908268
v -9.976845 -1.031017 9.976845
v -8.794909 -2.001007 -8.794909
v -10.000000 -0.795916 -10.000000
v -9.030010 -1.977852 -9.030010
v -9.256077 -1.909275 -9.256077
v -9.464421 -1.797912 -9.464421
v -9.647037 -1.648044 -9.647037
v -9.796906 -1.465429 -9.796906
v -9.908268 -1.257084 -9.908268
v -9.976845 -1.031017 -9.976845
v 8.794909 -2.001007 8.794909
v 10.000000 -0.795916 10.000000
v 9.030010 -1.977852 9.030010
v 9.256077 -1.909275 9.256077
v 9.464421 -1.797912 9.464421
v 9.647037 -1.648044 9.647037
v 9.796906 -1.465429 9.796906
v 9.908268 -1.257084 9.908268
v 9.976845 -1.031017 9.976845
v 8.794909 -2.001007 -8.794909
v 10.000000 -0.795916 -10.000000
v 9.030010 -1.977852 -9.030010
v 9.256077 -1.909275 -9.256077
v 9.464421 -1.797912 -9.464421
v 9.647037 -1.648044 -9.647037
v 9.796906 -1.465429 -9.796906
v 9.908268 -1.257084 -9.908268
v 9.976845 -1.031017 -9.976845
vt 1.000000 0.023136
vt 1.000000 0.023136
vt 1.000000 0.485847
vt 1.000000 0.485847
vt 0.877255 0.485847
vt 0.877255 0.485847
vt 0.877254 0.023136
vt 0.877254 0.023136
vt 0.997145 0.023136
vt 0.997145 0.023136
vt 0.997145 0.485847
vt 0.997145 0.485847
vt 1.000000 0.023136
vt 1.000000 0.023136
vt 1.000000 0.485847
vt 1.000000 0.485847
vt 0.840894 0.485847
vt 0.835189 0.485847
vt 0.835189 0.023136
vt 0.840894 0.023136
vt 0.714394 0.485847
vt 0.034019 0.485847
vt 0.034019 0.023136
vt 0.714394 0.023136
vt 0.814270 0.485847
vt 0.814270 0.023136
vt 0.976064 0.023136
vt 0.976064 0.485847
vt 0.898336 0.485847
vt 0.898336 0.023136
vt 0.772195 0.485847
vt 0.751276 0.485847
vt 0.751276 0.023136
vt 0.772195 0.023136
vt 0.061806 0.551016
vt 0.660190 0.551016
vt 0.660190 0.957967
vt 0.061806 0.957967
vt 0.970315 0.023136
vt 0.970315 0.485847
vt 0.904085 0.485847
vt 0.904085 0.023136
vt 0.053809 0.963406
vt 0.053808 0.545577
vt 0.046118 0.968636
vt 0.046118 0.540347
vt 0.039030 0.973456
vt 0.039030 0.535527
vt 0.032818 0.977681
vt 0.032818 0.531302
vt 0.808543 0.031302
vt 0.808543 0.477681
vt 0.801534 0.481148
vt 0.801534 0.027834
vt 0.793892 0.483725
vt 0.793892 0.025258
vt 0.785912 0.485311
vt 0.785912 0.023671
vt 0.777900 0.485847
vt 0.777900 0.023136
vt 0.668188 0.545577
vt 0.675878 0.540347
vt 0.682966 0.535527
vt 0.689178 0.531302
vt 0.934345 0.031302
vt 0.934345 0.477681
vt 0.927545 0.481148
vt 0.927545 0.027834
vt 0.920040 0.483725
vt 0.920040 0.025258
vt 0.912119 0.485311
vt 0.912118 0.023671
vt 0.668188 0.963406
vt 0.675878 0.968636
vt 0.682966 0.973456
vt 0.689178 0.977681
vt 0.940054 0.477681
vt 0.940054 0.031302
vt 0.946855 0.027834
vt 0.946854 0.481148
vt 0.954360 0.025258
vt 0.954360 0.483725
vt 0.962281 0.023671
vt 0.962281 0.485311
vt 0.871537 0.031302
vt 0.871537 0.477681
vt 0.864528 0.481148
vt 0.864527 0.027834
vt 0.856886 0.483725
vt 0.856886 0.025258
vt 0.848906 0.485311
vt 0.848906 0.023671
vn 1.0000 0.0000 0.0000
vn 0.0000 0.0000 -1.0000
vn 0.0000 -0.0475 0.9989
vn 0.0000 0.0000 1.0000
vn 0.0000 1.0000 0.0000
vn -1.0000 0.0000 0.0000
vn -0.0368 -0.9986 -0.0368
vn 0.0368 -0.9986 -0.0368
vn 0.0368 -0.9986 0.0368
vn -0.0368 -0.9986 0.0368
vn 0.9989 -0.0475 0.0000
vn 0.0000 -0.0475 -0.9989
vn -0.1232 -0.9847 0.1232
vn -0.1232 -0.9847 -0.1232
vn -0.2233 -0.9488 0.2233
vn -0.2233 -0.9488 -0.2233
vn -0.5917 -0.8061 0.0000
vn -0.7345 -0.6786 0.0000
vn -0.8493 -0.5280 0.0000
vn -0.9327 -0.3605 0.0000
vn -0.9832 -0.1827 0.0000
vn -0.9989 -0.0475 0.0000
vn 0.1232 -0.9847 -0.1232
vn 0.2233 -0.9488 -0.2233
vn 0.0000 -0.8061 -0.5917
vn 0.0000 -0.6786 -0.7345
vn 0.0000 -0.5280 -0.8493
vn 0.0000 -0.3605 -0.9327
vn 0.0000 -0.1827 -0.9832
vn 0.1232 -0.9847 0.1232
vn 0.2233 -0.9488 0.2233
vn 0.5917 -0.8061 0.0000
vn 0.7345 -0.6786 0.0000
vn 0.8493 -0.5280 0.0000
vn 0.9327 -0.3605 0.0000
vn 0.9832 -0.1827 0.0000
vn 0.0000 -0.8061 0.5917
vn 0.0000 -0.6786 0.7345
vn 0.0000 -0.5280 0.8493
vn 0.0000 -0.3605 0.9327
vn 0.0000 -0.1827 0.9832
usemtl Grey.001
s 1
f 5/1/1 1/2/1 2/3/1 6/4/1
f 6/5/2 2/6/2 4/7/2 7/8/2
f 7/9/1 4/10/1 3/11/1 8/12/1
f 8/13/2 3/14/2 1/15/2 5/16/2
f 32/17/3 11/18/4 12/19/4 14/20/3
f 4/21/5 2/22/5 1/23/5 3/24/5
f 11/18/4 8/25/4 5/26/4 12/19/4
f 10/27/1 7/9/1 8/12/1 11/28/1
f 9/29/2 6/5/2 7/8/2 10/30/2
f 12/31/6 5/32/6 6/33/6 9/34/6
f 22/35/7 40/36/8 31/37/9 13/38/10
f 41/39/11 10/27/1 11/28/1 32/40/11
f 23/41/12 9/29/2 10/30/2 41/42/12
f 22/35/7 13/38/10 15/43/13 24/44/14
f 24/44/14 15/43/13 16/45/15 25/46/16
f 25/46/16 16/45/15 17/47/17 26/48/17
f 26/48/17 17/47/17 18/49/18 27/50/18
f 27/51/18 18/52/18 19/53/19 28/54/19
f 28/54/19 19/53/19 20/55/20 29/56/20
f 29/56/20 20/55/20 21/57/21 30/58/21
f 30/58/21 21/57/21 14/59/22 23/60/22
f 40/36/8 22/35/7 24/44/14 42/61/23
f 42/61/23 24/44/14 25/46/16 43/62/24
f 43/62/24 25/46/16 26/48/25 44/63/25
f 44/63/25 26/48/25 27/50/26 45/64/26
f 45/65/26 27/66/26 28/67/27 46/68/27
f 46/68/27 28/67/27 29/69/28 47/70/28
f 47/70/28 29/69/28 30/71/29 48/72/29
f 48/72/29 30/71/29 23/41/12 41/42/12
f 31/37/9 40/36/8 42/61/23 33/73/30
f 33/73/30 42/61/23 43/62/24 34/74/31
f 34/74/31 43/62/24 44/63/32 35/75/32
f 35/75/32 44/63/32 45/64/33 36/76/33
f 36/77/33 45/78/33 46/79/34 37/80/34
f 37/80/34 46/79/34 47/81/35 38/82/35
f 38/82/35 47/81/35 48/83/36 39/84/36
f 39/84/36 48/83/36 41/39/11 32/40/11
f 13/38/10 31/37/9 33/73/30 15/43/13
f 15/43/13 33/73/30 34/74/31 16/45/15
f 16/45/15 34/74/31 35/75/37 17/47/37
f 17/47/37 35/75/37 36/76/38 18/49/38
f 18/85/38 36/86/38 37/87/39 19/88/39
f 19/88/39 37/87/39 38/89/40 20/90/40
f 20/90/40 38/89/40 39/91/41 21/92/41
f 21/92/41 39/91/41 32/17/3 14/20/3
f 14/59/22 12/31/6 9/34/6 23/60/22
