# Blender v2.82 (sub 7) OBJ File: 'Intersection4.blend'
# www.blender.org
mtllib ParkingLot.mtl
o Parking_Lot_Plane.004
v -10.000000 0.000000 10.000000
v -10.000000 0.000000 3.333333
v -10.000000 0.000000 4.285714
v -10.000000 0.000000 5.238095
v -10.000000 0.000000 6.190476
v -10.000000 0.000000 7.142857
v -10.000000 0.000000 8.095238
v -10.000000 0.000000 9.047619
v -9.047619 0.000000 10.000000
v -8.095238 0.000000 10.000000
v -7.142858 0.000000 10.000000
v -6.190476 0.000000 10.000000
v -5.238095 0.000000 10.000000
v -4.285715 0.000000 10.000000
v -3.333334 0.000000 10.000000
v -9.047619 0.000000 9.047619
v -9.047619 0.000000 8.095238
v -9.047619 0.000000 7.142858
v -9.047619 0.000000 6.190476
v -9.047619 0.000000 5.238095
v -9.047619 0.000000 4.285715
v -9.047619 0.000000 3.333334
v -8.095238 0.000000 9.047619
v -8.095238 0.000000 8.095238
v -8.095238 0.000000 7.142858
v -8.095238 0.000000 6.190476
v -8.095238 0.000000 5.238095
v -8.095238 0.000000 4.285715
v -8.095238 0.000000 3.333334
v -7.142858 0.000000 9.047619
v -7.142858 0.000000 8.095238
v -7.142858 0.000000 7.142858
v -7.142858 0.000000 6.190476
v -7.142858 0.000000 5.238095
v -7.142858 0.000000 4.285715
v -7.142858 0.000000 3.333334
v -6.190476 0.000000 9.047619
v -6.190476 0.000000 8.095238
v -6.190476 0.000000 7.142858
v -6.190476 0.000000 6.190476
v -6.190476 0.000000 5.238095
v -6.190476 0.000000 4.285715
v -6.190476 0.000000 3.333334
v -5.238095 0.000000 9.047619
v -5.238095 0.000000 8.095238
v -5.238095 0.000000 7.142858
v -5.238095 0.000000 6.190476
v -5.238095 0.000000 5.238095
v -5.238095 0.000000 4.285715
v -5.238095 0.000000 3.333334
v -4.285715 0.000000 9.047619
v -4.285715 0.000000 8.095238
v -4.285715 0.000000 7.142858
v -4.285715 0.000000 6.190476
v -4.285715 0.000000 5.238095
v -4.285715 0.000000 4.285715
v -4.285715 0.000000 3.333334
v -3.333334 0.000000 9.047619
v -3.333334 0.000000 8.095238
v -3.333334 0.000000 7.142858
v -3.333334 0.000000 6.190476
v -3.333334 0.000000 5.238095
v -3.333334 0.000000 4.285715
v -3.333334 0.000000 3.333334
vt 0.028302 0.028302
vt 0.163073 0.028302
vt 0.163073 0.163073
vt 0.028302 0.163073
vt 0.163073 0.297844
vt 0.028302 0.297844
vt 0.163073 0.432614
vt 0.028302 0.432615
vt 0.163073 0.567385
vt 0.028302 0.567385
vt 0.163073 0.702156
vt 0.028302 0.702156
vt 0.163073 0.836927
vt 0.028302 0.836927
vt 0.163073 0.971698
vt 0.028302 0.971698
vt 0.297844 0.028302
vt 0.297844 0.163073
vt 0.297844 0.297844
vt 0.297844 0.432614
vt 0.297844 0.567385
vt 0.297844 0.702156
vt 0.297844 0.836927
vt 0.297844 0.971698
vt 0.432614 0.028302
vt 0.432614 0.163073
vt 0.432614 0.297844
vt 0.432614 0.432614
vt 0.432614 0.567385
vt 0.432615 0.702156
vt 0.432615 0.836927
vt 0.432615 0.971698
vt 0.567385 0.028302
vt 0.567385 0.163073
vt 0.567385 0.297843
vt 0.567385 0.432614
vt 0.567385 0.567385
vt 0.567385 0.702156
vt 0.567385 0.836927
vt 0.567385 0.971698
vt 0.702156 0.028302
vt 0.702156 0.163073
vt 0.702156 0.297843
vt 0.702156 0.432614
vt 0.702156 0.567385
vt 0.702156 0.702156
vt 0.702156 0.836927
vt 0.702156 0.971698
vt 0.836927 0.028302
vt 0.836927 0.163073
vt 0.836927 0.297843
vt 0.836927 0.432614
vt 0.836927 0.567385
vt 0.836927 0.702156
vt 0.836927 0.836927
vt 0.836927 0.971698
vt 0.971698 0.028302
vt 0.971698 0.163073
vt 0.971698 0.297843
vt 0.971698 0.432614
vt 0.971698 0.567385
vt 0.971698 0.702156
vt 0.971698 0.836927
vt 0.971698 0.971698
vn 0.0000 1.0000 0.0000
usemtl Parking_Lot
s off
f 1/1/1 9/2/1 16/3/1 8/4/1
f 8/4/1 16/3/1 17/5/1 7/6/1
f 7/6/1 17/5/1 18/7/1 6/8/1
f 6/8/1 18/7/1 19/9/1 5/10/1
f 5/10/1 19/9/1 20/11/1 4/12/1
f 4/12/1 20/11/1 21/13/1 3/14/1
f 3/14/1 21/13/1 22/15/1 2/16/1
f 9/2/1 10/17/1 23/18/1 16/3/1
f 16/3/1 23/18/1 24/19/1 17/5/1
f 17/5/1 24/19/1 25/20/1 18/7/1
f 18/7/1 25/20/1 26/21/1 19/9/1
f 19/9/1 26/21/1 27/22/1 20/11/1
f 20/11/1 27/22/1 28/23/1 21/13/1
f 21/13/1 28/23/1 29/24/1 22/15/1
f 10/17/1 11/25/1 30/26/1 23/18/1
f 23/18/1 30/26/1 31/27/1 24/19/1
f 24/19/1 31/27/1 32/28/1 25/20/1
f 25/20/1 32/28/1 33/29/1 26/21/1
f 26/21/1 33/29/1 34/30/1 27/22/1
f 27/22/1 34/30/1 35/31/1 28/23/1
f 28/23/1 35/31/1 36/32/1 29/24/1
f 11/25/1 12/33/1 37/34/1 30/26/1
f 30/26/1 37/34/1 38/35/1 31/27/1
f 31/27/1 38/35/1 39/36/1 32/28/1
f 32/28/1 39/36/1 40/37/1 33/29/1
f 33/29/1 40/37/1 41/38/1 34/30/1
f 34/30/1 41/38/1 42/39/1 35/31/1
f 35/31/1 42/39/1 43/40/1 36/32/1
f 12/33/1 13/41/1 44/42/1 37/34/1
f 37/34/1 44/42/1 45/43/1 38/35/1
f 38/35/1 45/43/1 46/44/1 39/36/1
f 39/36/1 46/44/1 47/45/1 40/37/1
f 40/37/1 47/45/1 48/46/1 41/38/1
f 41/38/1 48/46/1 49/47/1 42/39/1
f 42/39/1 49/47/1 50/48/1 43/40/1
f 13/41/1 14/49/1 51/50/1 44/42/1
f 44/42/1 51/50/1 52/51/1 45/43/1
f 45/43/1 52/51/1 53/52/1 46/44/1
f 46/44/1 53/52/1 54/53/1 47/45/1
f 47/45/1 54/53/1 55/54/1 48/46/1
f 48/46/1 55/54/1 56/55/1 49/47/1
f 49/47/1 56/55/1 57/56/1 50/48/1
f 14/49/1 15/57/1 58/58/1 51/50/1
f 51/50/1 58/58/1 59/59/1 52/51/1
f 52/51/1 59/59/1 60/60/1 53/52/1
f 53/52/1 60/60/1 61/61/1 54/53/1
f 54/53/1 61/61/1 62/62/1 55/54/1
f 55/54/1 62/62/1 63/63/1 56/55/1
f 56/55/1 63/63/1 64/64/1 57/56/1
