# Blender v2.82 (sub 7) OBJ File: 'Intersection4.blend'
# www.blender.org
mtllib Tree-Dead.mtl
o Tree_1.002_Cube.002
v 4.259266 -0.003323 8.801369
v 4.259266 -0.003323 9.319901
v 3.740734 -0.003323 8.801369
v 3.740734 -0.003323 9.319901
v 3.974891 1.831421 9.046010
v 3.974891 1.831421 9.075259
v 3.919762 1.794085 9.042281
v 3.919762 1.794085 9.078989
v 4.011734 0.539098 8.915351
v 4.011734 0.539098 9.205919
v 3.745460 0.397526 9.205919
v 3.745460 0.397526 8.915351
v 3.945398 0.956317 8.939996
v 3.945398 0.956317 9.181273
v 3.713727 0.982143 9.181274
v 3.713727 0.982143 8.939996
v 4.079812 1.332722 8.983712
v 4.079812 1.332722 9.137557
v 3.900020 1.459388 9.137557
v 3.900020 1.459388 8.983712
v 4.118058 1.545721 9.019882
v 4.118058 1.545721 9.101388
v 4.038871 1.569215 9.101388
v 4.038871 1.569215 9.019882
v 4.166783 1.900382 9.040196
v 4.166783 1.900382 9.081074
v 4.126230 1.894127 9.081074
v 4.126230 1.894127 9.040196
v 4.123662 2.202011 9.051826
v 4.123662 2.202011 9.069445
v 4.106182 2.199315 9.069445
v 4.106182 2.199315 9.051826
v 3.782328 0.208250 9.221373
v 3.782328 0.208250 8.899898
v 4.093908 0.265910 8.899898
v 4.093908 0.265910 9.221372
v 3.742710 0.693822 8.945994
v 3.961114 0.743721 8.945994
v 3.961114 0.743721 9.175275
v 3.742710 0.693822 9.175276
v 3.814689 1.215526 9.145839
v 3.814689 1.215526 8.975430
v 3.967212 1.149759 8.975430
v 3.967212 1.149759 9.145839
v 4.080714 1.731936 9.028163
v 4.144256 1.722787 9.028163
v 4.144256 1.722787 9.093107
v 4.080714 1.731936 9.093107
v 3.849702 2.041177 9.052287
v 3.878361 2.042912 9.053983
v 3.878361 2.042912 9.067286
v 3.849702 2.041177 9.068983
v 3.845270 2.287888 9.055568
v 3.862664 2.288940 9.056598
v 3.862664 2.288940 9.064672
v 3.845270 2.287888 9.065701
v 3.965274 1.376708 8.841198
v 4.073385 1.318296 8.853397
v 4.036005 1.231859 8.781704
v 3.948864 1.261362 8.761758
v 4.078268 1.512873 8.611772
v 4.118728 1.497521 8.621847
v 4.118332 1.479865 8.585193
v 4.087873 1.488269 8.571929
v 4.179613 1.766590 8.577991
v 4.197170 1.759928 8.582364
v 4.196998 1.752267 8.566458
v 4.183781 1.755914 8.560702
v 3.996851 1.207930 8.881239
v 4.059302 1.320107 8.914539
v 3.897056 1.247600 8.872933
v 3.939421 1.397173 8.909460
v 3.921069 0.878292 9.315953
v 3.758814 0.927195 9.318242
v 3.920802 0.756714 9.392903
v 3.764122 0.762333 9.423367
v 3.928426 1.113825 9.421366
v 3.883323 1.120844 9.411780
v 3.928352 1.121114 9.455899
v 3.884799 1.130962 9.458710
v 3.966561 1.492902 9.376401
v 3.950091 1.495465 9.372901
v 3.966534 1.495564 9.389011
v 3.950629 1.499160 9.390038
vt 0.855444 0.936170
vt 0.831761 0.936170
vt 0.837929 0.889083
vt 0.848594 0.889083
vt 0.267370 0.831957
vt 0.151842 0.851654
vt 0.145494 0.779692
vt 0.249915 0.761889
vt 0.147949 0.305592
vt 0.118658 0.310585
vt 0.111228 0.228177
vt 0.124420 0.225928
vt 0.746037 0.213314
vt 0.727399 0.196558
vt 0.770167 0.118088
vt 0.780504 0.119942
vt 0.991621 0.214942
vt 0.805419 0.210480
vt 0.805419 0.009256
vt 0.991621 0.013718
vt 0.136049 0.241792
vt 0.121841 0.209386
vt 0.863395 0.514643
vt 0.858739 0.432394
vt 0.878772 0.406770
vt 0.878772 0.497945
vt 0.473935 0.144964
vt 0.589825 0.163761
vt 0.568849 0.266535
vt 0.464101 0.249545
vt 0.893493 0.408286
vt 0.893492 0.526463
vt 0.886274 0.549855
vt 0.880268 0.453133
vt 0.836478 0.787576
vt 0.722886 0.765123
vt 0.752901 0.658164
vt 0.849934 0.713295
vt 0.180952 0.448544
vt 0.119712 0.458985
vt 0.109716 0.361102
vt 0.165003 0.351676
vt 0.743148 0.984377
vt 0.658243 0.984377
vt 0.677649 0.930577
vt 0.738911 0.931334
vt 0.221248 0.650165
vt 0.138852 0.664213
vt 0.119049 0.555201
vt 0.205757 0.540418
vt 0.463664 0.329235
vt 0.546319 0.342641
vt 0.536736 0.424741
vt 0.449757 0.410633
vt 0.445541 0.561515
vt 0.501001 0.570510
vt 0.476468 0.651493
vt 0.447086 0.646728
vt 0.452027 0.487887
vt 0.513458 0.497851
vt 0.526526 0.569230
vt 0.544371 0.526477
vt 0.579137 0.542403
vt 0.548738 0.572417
vt 0.763033 0.444070
vt 0.705281 0.463598
vt 0.671124 0.388010
vt 0.741002 0.345951
vt 0.349934 0.943843
vt 0.350528 0.968946
vt 0.344089 0.959601
vt 0.342969 0.944209
vt 0.867347 0.363292
vt 0.933296 0.394579
vt 0.888360 0.387801
vt 0.861087 0.374718
vt 0.665012 0.302639
vt 0.694605 0.296627
vt 0.919708 0.907894
vt 0.904834 0.907894
vt 0.907816 0.789973
vt 0.914227 0.789973
vt 0.685378 0.231641
vt 0.661987 0.232706
vt 0.660310 0.162571
vt 0.674795 0.166577
vt 0.923401 0.972851
vt 0.899769 0.972851
vt 0.440487 0.716167
vt 0.463899 0.719965
vt 0.449930 0.788339
vt 0.435194 0.785949
vt 0.797316 0.556780
vt 0.803452 0.556805
vt 0.803452 0.563697
vt 0.797316 0.563672
vt 0.428969 0.903183
vt 0.422617 0.902153
vt 0.329938 0.983101
vt 0.329455 0.976466
vt 0.686999 0.046959
vt 0.693243 0.048685
vt 0.852014 0.873631
vt 0.662931 0.873631
vt 0.897129 0.790754
vt 0.897129 0.990989
vt 0.862099 0.988231
vt 0.862344 0.871518
vt 0.454024 0.038893
vt 0.640952 0.069211
vt 0.314610 0.908967
vt 0.128266 0.940737
vt 0.771307 0.577341
vt 0.850926 0.596772
vt 0.246239 0.695764
vt 0.222168 0.621345
vt 0.791152 0.539757
vt 0.706148 0.540723
vt 0.924024 0.406014
vt 0.924024 0.497091
vt 0.912124 0.472708
vt 0.911920 0.409697
vt 0.358281 0.944887
vt 0.358281 0.976799
vt 0.784878 0.023285
vt 0.791152 0.024410
vt 0.935580 0.862784
vt 0.927682 0.845133
vt 0.924943 0.803862
vt 0.928395 0.814258
vt 0.098896 0.135827
vt 0.104896 0.134804
vt 0.929347 0.748298
vt 0.918683 0.748298
vt 0.922462 0.667717
vt 0.927312 0.667717
vt 0.804385 0.549503
vt 0.808080 0.549503
vt 0.807689 0.556155
vt 0.804744 0.556155
vt 0.933484 0.785234
vt 0.935580 0.791543
vt 0.085338 0.041131
vt 0.088979 0.040510
vt 0.923648 0.571944
vt 0.926592 0.571944
vt 0.879209 0.681259
vt 0.912201 0.672769
vt 0.915822 0.771865
vt 0.903376 0.772755
vt 0.873323 0.639073
vt 0.909095 0.624603
vt 0.217345 0.426307
vt 0.196084 0.369261
vt 0.222292 0.371789
vt 0.257402 0.411920
vt 0.928042 0.360483
vt 0.883717 0.341593
vt 0.888128 0.317499
vt 0.928632 0.331576
vt 0.314610 0.307045
vt 0.298659 0.300468
vt 0.297526 0.196531
vt 0.304447 0.199385
vt 0.636786 0.651484
vt 0.622605 0.656168
vt 0.917672 0.231535
vt 0.933296 0.234696
vt 0.798224 0.555078
vt 0.797337 0.549366
vt 0.803922 0.548720
vt 0.803922 0.556121
vt 0.910662 0.514406
vt 0.894801 0.514492
vt 0.903779 0.406801
vt 0.910662 0.406763
vt 0.640952 0.654831
vt 0.630798 0.760963
vt 0.628990 0.759510
vt 0.622836 0.761543
vt 0.862904 0.599259
vt 0.915822 0.572997
vt 0.073894 0.582687
vt 0.046006 0.652170
vt 0.013548 0.507507
vt 0.030988 0.508581
vt 0.827239 0.982027
vt 0.750425 0.982853
vt 0.769755 0.900519
vt 0.827239 0.891094
vt 0.405364 0.372090
vt 0.384294 0.320636
vt 0.845447 0.385627
vt 0.829180 0.385068
vt 0.849387 0.237582
vt 0.855327 0.237786
vt 0.711161 0.894917
vt 0.727805 0.891159
vt 0.855327 0.535003
vt 0.799550 0.520983
vt 0.354477 0.457043
vt 0.341627 0.457837
vt 0.810085 0.563456
vt 0.804151 0.563038
vt 0.804002 0.558116
vt 0.810085 0.556770
vt 0.350078 0.606901
vt 0.345386 0.607191
vt 0.017520 0.359065
vt 0.023888 0.359457
vt 0.831461 0.940177
vt 0.848459 0.940811
vt 0.848459 0.982135
vt 0.842251 0.981903
vn -0.0985 0.3296 0.9390
vn -0.0985 0.3296 -0.9390
vn 0.5253 0.4397 -0.7285
vn 0.5253 0.4397 0.7285
vn -0.7108 0.1847 -0.6788
vn -0.7108 0.1847 0.6788
vn -0.7330 -0.0202 0.6799
vn -0.7330 -0.0202 -0.6799
vn -0.4331 0.2330 -0.8707
vn -0.4331 0.2330 0.8707
vn -0.6951 -0.2291 0.6814
vn -0.6951 -0.2291 -0.6814
vn 0.6618 0.1853 0.7264
vn -0.7142 -0.0898 0.6941
vn 0.6918 -0.3386 -0.6378
vn 0.6918 -0.3386 0.6378
vn -0.6015 -0.4315 0.6723
vn -0.6015 -0.4315 -0.6723
vn 0.6878 0.1453 -0.7112
vn -0.7200 -0.0003 -0.6940
vn -0.7231 0.1486 -0.6745
vn 0.6690 0.0353 -0.7424
vn 0.6026 0.4516 0.6579
vn 0.6026 0.4516 -0.6579
vn 0.6441 0.2519 -0.7223
vn 0.6441 0.2519 0.7223
vn -0.8166 0.1828 -0.5475
vn -0.6405 0.3227 0.6968
vn -0.5738 0.4813 0.6626
vn -0.5893 0.6397 -0.4935
vn 0.8311 0.3101 0.4616
vn -0.8245 0.3632 0.4338
vn -0.7917 0.5894 0.1605
vn 0.9265 0.3762 -0.0116
vn -0.8579 -0.2734 0.4350
vn 0.9110 -0.1004 0.4001
vn 0.7087 -0.2086 0.6740
vn 0.9364 -0.0794 -0.3417
vn 0.7404 -0.0400 -0.6709
vn 0.7404 -0.0400 0.6709
vn 0.6564 -0.1381 0.7417
vn 0.6821 -0.4853 -0.5470
vn 0.9717 0.2156 -0.0962
vn 0.3650 -0.8983 -0.2444
vn 0.4613 -0.8255 -0.3251
vn 0.9550 0.1375 0.2630
vn 0.7055 -0.0553 -0.7065
vn -0.6632 0.1148 -0.7395
vn 0.7371 0.0379 -0.6747
vn -0.6632 0.1148 0.7395
vn -0.6375 0.5189 0.5696
vn -0.6375 0.5189 -0.5696
vn 0.7055 -0.0553 0.7065
vn 0.7371 0.0379 0.6747
vn 0.4870 0.6663 0.5647
vn 0.4870 0.6663 -0.5647
vn 0.5556 0.6188 0.5553
vn -0.5829 0.5544 0.5940
vn -0.7142 -0.0898 -0.6941
vn 0.6618 0.1853 -0.7265
vn -0.5830 0.5544 -0.5940
vn 0.5556 0.6188 -0.5553
vn -0.6582 -0.4299 -0.6180
vn -0.4380 -0.1265 -0.8900
vn 0.6601 -0.4656 -0.5895
vn -0.7268 -0.3228 -0.6062
vn -0.1992 0.8240 -0.5304
vn -0.4384 0.8944 -0.0880
vn -0.7575 0.5998 0.2576
vn -0.3897 0.8947 0.2184
vn -0.1505 0.4748 -0.8671
vn 0.8236 0.1058 0.5572
vn 0.8340 0.1881 -0.5187
vn 0.6799 0.5310 0.5058
vn -0.5212 -0.4988 0.6924
vn -0.5278 0.1548 0.8352
vn -0.6754 0.3600 -0.6436
vn 0.6169 -0.5611 0.5518
vn 0.7075 -0.0482 0.7051
vn 0.6808 0.5811 0.4459
vn -0.4220 0.7746 0.4711
vn 0.8183 0.0435 -0.5732
vn 0.7051 0.3930 -0.5903
vn -0.4296 0.5485 -0.7173
usemtl Material.001
s 1
f 48/1/1 45/2/2 5/3/3 6/4/4
f 34/5/5 33/6/6 11/7/7 12/8/8
f 24/9/9 23/10/10 8/11/11 7/12/12
f 8/13/11 6/14/4 51/15/13 52/16/14
f 1/17/15 2/18/16 4/19/17 3/20/18
f 45/21/2 24/9/9 7/12/12 5/22/3
f 38/23/19 37/24/20 16/25/21 13/26/22
f 36/27/23 35/28/24 9/29/25 10/30/26
f 35/31/24 34/32/5 12/33/8 9/34/25
f 33/35/6 36/36/23 10/37/26 11/38/7
f 42/39/27 41/40/28 19/41/29 20/42/30
f 14/43/31 15/44/32 74/45/33 73/46/34
f 37/47/20 40/48/35 15/49/32 16/50/21
f 39/51/36 38/52/19 13/53/22 14/54/31
f 18/55/37 17/56/38 21/57/39 22/58/40
f 44/59/41 43/60/42 17/56/38 18/55/37
f 70/61/43 69/62/44 59/63/45 58/64/46
f 41/65/28 44/66/41 18/67/37 19/68/29
f 46/69/47 45/70/2 28/71/48 25/72/49
f 17/73/38 20/74/30 24/75/9 21/76/39
f 19/68/29 18/67/37 22/77/40 23/78/10
f 20/42/30 19/41/29 23/10/10 24/9/9
f 28/79/48 27/80/50 31/81/51 32/82/52
f 48/83/1 47/84/53 26/85/54 27/86/50
f 45/87/2 48/88/1 27/80/50 28/79/48
f 47/89/53 46/90/47 25/91/49 26/92/54
f 31/93/51 30/94/55 29/95/56 32/96/52
f 26/92/54 25/91/49 29/97/56 30/98/55
f 25/72/49 28/71/48 32/99/52 29/100/56
f 27/86/50 26/85/54 30/101/55 31/102/51
f 4/103/17 2/104/16 36/36/23 33/35/6
f 1/105/15 3/106/18 34/107/5 35/108/24
f 2/109/16 1/110/15 35/28/24 36/27/23
f 3/111/18 4/112/17 33/6/6 34/5/5
f 10/30/26 9/29/25 38/52/19 39/51/36
f 12/8/8 11/7/7 40/48/35 37/47/20
f 11/38/7 10/37/26 39/113/36 40/114/35
f 9/115/25 12/8/8 37/47/20 38/116/19
f 15/117/32 14/118/31 44/66/41 41/65/28
f 13/119/22 16/120/21 42/121/27 43/122/42
f 14/54/31 13/53/22 43/60/42 44/59/41
f 16/50/21 15/49/32 41/40/28 42/39/27
f 22/58/40 21/57/39 46/90/47 47/89/53
f 23/78/10 48/83/1 6/14/4 8/13/11
f 23/78/10 22/77/40 47/84/53 48/83/1
f 21/123/39 24/124/9 45/70/2 46/69/47
f 52/16/14 51/15/13 55/125/57 56/126/58
f 5/127/3 7/128/12 49/129/59 50/130/60
f 7/12/12 8/11/11 52/131/14 49/132/59
f 6/133/4 5/134/3 50/135/60 51/136/13
f 53/137/61 56/138/58 55/139/57 54/140/62
f 50/130/60 49/129/59 53/141/61 54/142/62
f 49/132/59 52/131/14 56/143/58 53/144/61
f 51/136/13 50/135/60 54/145/62 55/146/57
f 59/147/45 60/148/63 64/149/64 63/150/65
f 69/151/44 71/152/66 60/148/63 59/147/45
f 71/153/66 72/154/67 57/155/68 60/156/63
f 72/157/67 70/158/43 58/159/46 57/160/68
f 64/161/64 61/162/69 65/163/70 68/164/71
f 58/64/46 59/63/45 63/165/65 62/166/72
f 60/156/63 57/155/68 61/162/69 64/161/64
f 57/160/68 58/159/46 62/167/72 61/168/69
f 67/169/73 68/170/71 65/171/70 66/172/74
f 61/173/69 62/174/72 66/175/74 65/176/70
f 63/165/65 64/177/64 68/178/71 67/179/73
f 62/166/72 63/165/65 67/179/73 66/180/74
f 20/74/30 17/73/38 70/158/43 72/157/67
f 42/39/27 20/42/30 72/154/67 71/153/66
f 43/181/42 42/182/27 71/152/66 69/151/44
f 17/56/38 43/60/42 69/62/44 70/61/43
f 74/183/33 76/184/75 80/185/76 78/186/77
f 40/187/35 39/188/36 75/189/78 76/190/75
f 39/51/36 14/54/31 73/191/34 75/192/78
f 15/49/32 40/48/35 76/184/75 74/183/33
f 80/193/76 79/194/79 83/195/80 84/196/81
f 73/46/34 74/45/33 78/197/77 77/198/82
f 76/199/75 75/200/78 79/194/79 80/193/76
f 75/192/78 73/191/34 77/201/82 79/202/79
f 84/203/81 83/204/80 81/205/83 82/206/84
f 79/202/79 77/201/82 81/207/83 83/208/80
f 78/186/77 80/185/76 84/209/81 82/210/84
f 77/211/82 78/212/77 82/213/84 81/214/83
